<svg xmlns="http://www.w3.org/2000/svg" viewBox="0 0 52.05 32.63"><g id="Layer_2" data-name="Layer 2"><g id="Layer_1-2" data-name="Layer 1"><path id="Icon_awesome-behance" data-name="Icon awesome-behance" d="M21,14.62a6.88,6.88,0,0,0,4.37-6.69C25.34,1.55,20.58,0,15.1,0H0V32H15.53c5.81,0,11.28-2.79,11.28-9.3C26.81,18.7,24.9,15.73,21,14.62ZM7,5.46h6.6c2.54,0,4.83.72,4.83,3.66,0,2.72-1.78,3.82-4.29,3.82H7Zm7.53,21.12H7V17.76h7.67c3.1,0,5.06,1.29,5.06,4.57s-2.34,4.25-5.2,4.25ZM47,4.83H34V1.68H47Zm5.09,15.94c0-6.86-4-12.58-11.29-12.58C33.7,8.19,28.9,13.5,28.9,20.46c0,7.22,4.54,12.17,11.86,12.17,5.54,0,9.13-2.49,10.86-7.8H46c-.61,2-3.1,3-5,3-3.72,0-5.69-2.19-5.69-5.9H52c0-.39,0-.79,0-1.2ZM35.28,17.94a5,5,0,0,1,5-5h.29c3.2,0,4.81,1.88,5.08,5Z"/></g></g></svg>