<svg xmlns="http://www.w3.org/2000/svg" viewBox="0 0 46.17 46.16"><g id="Layer_2" data-name="Layer 2"><g id="Layer_1-2" data-name="Layer 1"><path id="Icon_awesome-instagram" data-name="Icon awesome-instagram" d="M23.09,11.24A11.84,11.84,0,1,0,34.93,23.08,11.85,11.85,0,0,0,23.09,11.24Zm0,19.54a7.7,7.7,0,1,1,7.7-7.7,7.69,7.69,0,0,1-7.7,7.7Zm15.09-20A2.76,2.76,0,1,1,35.42,8a2.77,2.77,0,0,1,2.76,2.76ZM46,13.56c-.18-3.7-1-7-3.73-9.67S36.31.34,32.62.16,17.37,0,13.56.16s-7,1-9.67,3.72S.35,9.85.16,13.55s-.21,15.23,0,19,1,7,3.73,9.68,6,3.54,9.67,3.72,15.24.22,19,0,7-1,9.67-3.72,3.54-6,3.73-9.68.21-15.22,0-19ZM41.09,36.68a7.8,7.8,0,0,1-4.39,4.39c-3,1.21-10.25.93-13.61.93s-10.58.27-13.61-.93A7.78,7.78,0,0,1,5.1,36.68c-1.21-3-.93-10.25-.93-13.6S3.9,12.5,5.1,9.47A7.78,7.78,0,0,1,9.48,5.08c3-1.2,10.25-.93,13.61-.93s10.58-.26,13.61.93a7.78,7.78,0,0,1,4.38,4.39c1.21,3,.93,10.25.93,13.61S42.29,33.66,41.09,36.68Z"/></g></g></svg>